<svg width="181" height="24" viewBox="0 0 181 24" fill="none" xmlns="http://www.w3.org/2000/svg">
<rect width="181" height="24" fill="#E5E5E5"/>
<g clip-path="url(#clip0_0:1)">
<rect width="1440" height="820" transform="translate(-96 -103)" fill="#121214"/>
<path d="M143 21.499C143 22.8776 141.99 24 140.499 24C139.008 24 138 22.8776 138 21.499C138 20.1204 139.008 19 140.499 19C141.99 19 143 20.1085 143 21.499Z" fill="white"/>
<path d="M145 23.8662V1H153.822V23.8662H145Z" fill="white"/>
<path d="M180.34 11.9381C180.342 14.3015 179.63 16.6123 178.294 18.5784C176.958 20.5444 175.058 22.0773 172.834 22.983C170.611 23.8887 168.163 24.1267 165.802 23.6667C163.44 23.2068 161.271 22.0697 159.568 20.3992C157.865 18.7287 156.705 16.5998 156.235 14.2819C155.764 11.9641 156.005 9.56134 156.926 7.37765C157.846 5.19396 159.406 3.32744 161.408 2.0142C163.409 0.700962 165.763 7.51475e-07 168.17 0C171.395 0.00503159 174.486 1.26415 176.767 3.5016C179.048 5.73906 180.333 8.77258 180.34 11.9381Z" fill="white"/>
<path d="M30.822 7.50735V9.68914H36.3441V15.1389H30.822V17.3207H37.994V23.8662H22.0001V1H37.994V7.54544L30.822 7.50735Z" fill="#18A558"/>
<path d="M128.822 7.50735V9.68914H134.344V15.1389H128.822V17.3207H135.994V23.8662H120V1H135.994V7.54544L128.822 7.50735Z" fill="#18A558"/>
<path d="M6.00001 10.2703L6.00001 23.8662L1.90735e-06 23.8662L1.13524e-05 0.999979L5.00001 1.00001L10.0122 10.2703L15 1.00001L20 0.999979L20 23.8662L14 23.8662L14 10.2703L11 23.8662L9.00001 23.8662L6.00001 10.2703Z" fill="#18A558"/>
<path d="M83 1.00004L76 24L85 24L88 12L91 24L100 24L93 1L83 1.00004Z" fill="#18A558"/>
<path d="M63 7H71C72.6569 7 74 5.65685 74 4C74 2.34315 72.6569 1 71 1H62C59.7909 1 58 2.79086 58 5V11C58 13.2091 59.7909 15 62 15H69V18H61C59.3431 18 58 19.3431 58 21C58 22.6569 59.3431 24 61 24H70C72.2091 24 74 22.2091 74 20V13C74 11.3431 72.6569 10 71 10H63V7Z" fill="#18A558"/>
<path d="M45.0001 7H53.0001C54.657 7 56.0001 5.65685 56.0001 4C56.0001 2.34315 54.657 1 53.0001 1H44.0001C41.791 1 40.0001 2.79086 40.0001 5V11C40.0001 13.2091 41.791 15 44.0001 15H51.0001V18H43.0001C41.3433 18 40.0001 19.3431 40.0001 21C40.0001 22.6569 41.3433 24 43.0001 24H52.0001C54.2093 24 56.0001 22.2091 56.0001 20V13C56.0001 11.3431 54.657 10 53.0001 10H45.0001V7Z" fill="#18A558"/>
<path d="M102 20V5C102 2.79086 103.791 1 106 1H115C116.657 1 118 2.34315 118 4C118 5.65685 116.657 7 115 7H107V19H109.5H113V15H112.5C111.119 15 110 13.8807 110 12.5C110 11.1193 111.119 10 112.5 10H114C116.209 10 118 11.7909 118 14V20C118 22.2091 116.209 24 114 24H106C103.791 24 102 22.2091 102 20Z" fill="#18A558"/>
</g>
<defs>
<clipPath id="clip0_0:1">
<rect width="1440" height="820" fill="white" transform="translate(-96 -103)"/>
</clipPath>
</defs>
</svg>
